<svg xmlns="http://www.w3.org/2000/svg" xmlns:xlink="http://www.w3.org/1999/xlink" width="300" height="300" viewBox="0 0 300 300" fill="none">
<rect x="0" y="0" width="0" height="0" fill="rgba(249, 249, 249, 1)" />
<path     fill="#00A870"  d="M0 150Q0 146.318 0.180682 142.64Q0.361363 138.962 0.722291 135.297Q1.08322 131.633 1.62352 127.99Q2.16383 124.348 2.88221 120.736Q3.60059 117.125 4.49531 113.553Q5.39004 109.981 6.45895 106.457Q7.52786 102.934 8.76839 99.4665Q10.0089 95.9995 11.4181 92.5975Q12.8272 89.1955 14.4016 85.8667Q15.976 82.538 17.7118 79.2905Q19.4476 76.043 21.3407 72.8846Q23.2338 69.7262 25.2796 66.6645Q27.3253 63.6027 29.5189 60.6451Q31.7124 57.6875 34.0484 54.841Q36.3845 51.9946 38.8573 49.2662Q41.3302 46.5378 43.934 43.934Q46.5378 41.3302 49.2662 38.8573Q51.9946 36.3844 54.841 34.0484Q57.6875 31.7124 60.6451 29.5189Q63.6027 27.3253 66.6645 25.2796Q69.7262 23.2338 72.8846 21.3407Q76.043 19.4476 79.2905 17.7118Q82.538 15.976 85.8667 14.4016Q89.1955 12.8272 92.5975 11.4181Q95.9995 10.0089 99.4665 8.76839Q102.934 7.52786 106.457 6.45895Q109.981 5.39004 113.553 4.49531Q117.125 3.60059 120.736 2.88221Q124.348 2.16383 127.99 1.62352Q131.633 1.08322 135.297 0.722291Q138.962 0.361363 142.64 0.180682Q146.318 0 150 0Q153.682 0 157.36 0.180682Q161.038 0.361363 164.703 0.722291Q168.367 1.08322 172.01 1.62352Q175.652 2.16383 179.264 2.88221Q182.875 3.60059 186.447 4.49531Q190.019 5.39004 193.543 6.45895Q197.066 7.52786 200.533 8.76839Q204.001 10.0089 207.402 11.4181Q210.805 12.8272 214.133 14.4016Q217.462 15.976 220.71 17.7118Q223.957 19.4476 227.115 21.3407Q230.274 23.2338 233.336 25.2796Q236.397 27.3253 239.355 29.5189Q242.313 31.7124 245.159 34.0484Q248.005 36.3845 250.734 38.8573Q253.462 41.3302 256.066 43.934Q258.67 46.5378 261.143 49.2662Q263.616 51.9946 265.952 54.841Q268.288 57.6875 270.481 60.6451Q272.675 63.6027 274.72 66.6645Q276.766 69.7262 278.659 72.8846Q280.552 76.043 282.288 79.2905Q284.024 82.538 285.598 85.8667Q287.173 89.1955 288.582 92.5975Q289.991 95.9995 291.232 99.4665Q292.472 102.934 293.541 106.457Q294.61 109.981 295.505 113.553Q296.399 117.125 297.118 120.736Q297.836 124.348 298.376 127.99Q298.917 131.633 299.278 135.297Q299.639 138.962 299.819 142.64Q300 146.318 300 150Q300 153.682 299.819 157.36Q299.639 161.038 299.278 164.703Q298.917 168.367 298.376 172.01Q297.836 175.652 297.118 179.264Q296.399 182.875 295.505 186.447Q294.61 190.019 293.541 193.543Q292.472 197.066 291.232 200.533Q289.991 204.001 288.582 207.402Q287.173 210.805 285.598 214.133Q284.024 217.462 282.288 220.71Q280.552 223.957 278.659 227.115Q276.766 230.274 274.72 233.336Q272.675 236.397 270.481 239.355Q268.288 242.313 265.952 245.159Q263.616 248.005 261.143 250.734Q258.67 253.462 256.066 256.066Q253.462 258.67 250.734 261.143Q248.005 263.616 245.159 265.952Q242.313 268.288 239.355 270.481Q236.397 272.675 233.336 274.72Q230.274 276.766 227.115 278.659Q223.957 280.552 220.71 282.288Q217.462 284.024 214.133 285.598Q210.805 287.173 207.402 288.582Q204.001 289.991 200.533 291.232Q197.066 292.472 193.543 293.541Q190.019 294.61 186.447 295.505Q182.875 296.399 179.264 297.118Q175.652 297.836 172.01 298.376Q168.367 298.917 164.703 299.278Q161.038 299.639 157.36 299.819Q153.682 300 150 300Q146.318 300 142.64 299.819Q138.962 299.639 135.297 299.278Q131.633 298.917 127.99 298.376Q124.348 297.836 120.736 297.118Q117.125 296.399 113.553 295.505Q109.981 294.61 106.457 293.541Q102.934 292.472 99.4665 291.232Q95.9995 289.991 92.5975 288.582Q89.1955 287.173 85.8667 285.598Q82.538 284.024 79.2905 282.288Q76.043 280.552 72.8846 278.659Q69.7262 276.766 66.6645 274.72Q63.6027 272.675 60.6451 270.481Q57.6875 268.288 54.841 265.952Q51.9946 263.616 49.2662 261.143Q46.5378 258.67 43.934 256.066Q41.3302 253.462 38.8573 250.734Q36.3844 248.005 34.0484 245.159Q31.7124 242.313 29.5189 239.355Q27.3253 236.397 25.2796 233.336Q23.2338 230.274 21.3407 227.115Q19.4476 223.957 17.7118 220.71Q15.976 217.462 14.4016 214.133Q12.8272 210.805 11.4181 207.402Q10.0089 204.001 8.76839 200.533Q7.52786 197.066 6.45895 193.543Q5.39004 190.019 4.49531 186.447Q3.60059 182.875 2.88221 179.264Q2.16383 175.652 1.62352 172.01Q1.08322 168.367 0.722291 164.703Q0.361363 161.038 0.180682 157.36Q0 153.682 0 150Z">
</path>
<g  clip-path="url(#clip-path-FNQiSV53_ucKoKD6xo9HS)">
<path d="M34.9022 110.222C17.001 159.142 32.883 216.14 73.168 248.935C113.453 281.73 171.983 286.528 216.721 259.418C261.46 232.308 284.503 179.578 274.779 128.409C263.68 70.1371 210.993 28.3913 152.334 27.7468C99.869 28.208 53.1404 61.026 34.9022 110.222ZM253.856 115.95C268.907 158.682 255.993 206.27 221.404 235.531C186.576 264.846 135.278 268.469 96.454 244.94C58.1882 221.725 37.5373 175.626 46.4163 131.66C56.5843 81.2645 101.166 45.2185 152.32 44.6456C197.216 45.1469 238.661 73.1731 253.856 115.893L253.856 115.95ZM287.467 152.555C286.647 226.852 226.617 286.881 152.32 287.702C148.754 287.731 148.754 293.33 152.32 293.33C229.706 292.463 292.229 229.941 293.096 152.555C293.138 148.917 287.496 148.917 287.467 152.555ZM17.1155 153.07C17.9364 78.4562 78.2222 18.1703 152.835 17.3498C158.879 17.3498 158.893 7.89789 152.835 7.95517C73.0692 8.86026 8.62637 73.3035 7.72094 153.07C7.66365 159.114 17.001 159.114 17.1155 153.07ZM163.519 18.6387C165.89 21.0074 169.734 21.0059 172.104 18.6358C174.474 16.2642 174.474 12.4205 172.104 10.0489C169.734 7.67877 165.89 7.67734 163.519 10.0461C162.372 11.1817 161.726 12.7284 161.726 14.3423C161.726 15.9563 162.372 17.503 163.519 18.6387ZM177.396 16.9344C177.396 18.3651 178.258 19.6555 179.58 20.2025C180.902 20.7496 182.423 20.4474 183.435 19.4363C184.446 18.4238 184.748 16.903 184.201 15.5811C183.654 14.2593 182.364 13.3972 180.933 13.3972C178.98 13.3972 177.396 14.9811 177.396 16.9344ZM146.406 290.194C146.572 288.494 145.328 286.981 143.628 286.815C141.927 286.649 140.415 287.893 140.248 289.593C140.082 291.293 141.326 292.806 143.026 292.972C143.843 293.052 144.657 292.804 145.291 292.283C145.925 291.762 146.326 291.011 146.406 290.194ZM137.584 288.547C137.682 287.54 136.945 286.644 135.938 286.545C134.931 286.447 134.034 287.183 133.935 288.19C133.836 289.198 134.572 290.094 135.579 290.194C136.585 290.286 137.478 289.552 137.584 288.547ZM18.519 165.701C17.0356 162.694 13.396 161.459 10.3887 162.941C7.38138 164.424 6.14478 168.063 7.62635 171.071C9.10791 174.079 12.7469 175.316 15.755 173.836C17.2008 173.124 18.3043 171.867 18.8228 170.341C19.3412 168.816 19.2319 167.146 18.519 165.701ZM19.7649 179.736C18.8916 178.005 16.7833 177.305 15.0478 178.17C13.3124 179.035 12.6023 181.14 13.4591 182.879C14.3158 184.619 16.4173 185.339 18.161 184.491C19.0062 184.075 19.6509 183.339 19.9519 182.447C20.253 181.554 20.1857 180.579 19.7649 179.736ZM287.281 144.134C287.572 145.353 288.569 146.275 289.806 146.471C291.042 146.667 292.275 146.099 292.929 145.03C293.582 143.961 293.527 142.604 292.789 141.592C292.05 140.581 290.776 140.114 289.558 140.41C287.904 140.813 286.886 142.477 287.281 144.134ZM287.482 136.186C287.591 136.66 287.886 137.071 288.301 137.324C288.716 137.578 289.216 137.652 289.687 137.532C290.409 137.36 290.956 136.769 291.072 136.035C291.188 135.302 290.851 134.57 290.217 134.184C289.583 133.797 288.779 133.831 288.179 134.27C287.581 134.708 287.304 135.464 287.482 136.186Z"   fill="#FFFFFF" >
</path>
<path     fill="#FFFFFF"  d="M167.527 125.492C161.443 127.899 164.991 137.419 171.331 134.883C177.672 132.347 183.259 128.156 185.152 121.044C188.828 106.984 175.136 100.753 164.476 100.753C151.298 100.753 135.18 104.686 130.493 122.827C126.56 137.787 139.628 148.447 151.298 153.391C166.13 160.357 167.398 167.341 166.516 171.274L166.645 170.888C164.605 177.743 158.264 187.374 144.957 187.374C130.364 187.374 119.962 178.239 129.482 168.48C133.912 163.922 126.817 156.552 122.131 161.386C101.712 182.43 124.538 202.592 144.957 202.592C163.079 202.592 179.565 189.781 183.627 175.703C183.756 175.464 183.627 175.703 183.627 175.703C188.442 154.916 169.31 147.804 156.371 141.72C145.84 137.291 141.521 130.95 142.917 125.877C144.572 119.279 154.331 113.435 164.476 113.435C173.353 113.435 176.147 115.218 175.265 118.507C174.621 121.044 172.342 123.58 167.527 125.492Z">
</path>
</g>
<defs>
<clipPath id="clip-path-FNQiSV53_ucKoKD6xo9HS">
<path d="M7 294L294 294L294 7L7 7L7 294Z" fill="white"/>
</clipPath>
</defs>
</svg>
