<svg xmlns="http://www.w3.org/2000/svg" xmlns:xlink="http://www.w3.org/1999/xlink" width="175"
  height="28" viewBox="0 0 175 28">
  <rect x="0" y="0" width="0" height="0" fill="rgba(249, 249, 249, 1)" />
  <rect x="0" y="0" width="0.00016509434474050067" height="0.00009333332855021581" fill="#F9F9F9">
  </rect>
  <path
    d="M3.6306 10.6757C1.94289 15.3042 3.44023 20.6968 7.23827 23.7997C11.0363 26.9025 16.5545 27.3564 20.7724 24.7915C24.9903 22.2266 27.1628 17.2376 26.246 12.3965C25.1996 6.88319 20.2323 2.93353 14.702 2.87255C9.75565 2.91618 5.35007 6.02118 3.6306 10.6757ZM24.2734 11.2177C25.6924 15.2607 24.4748 19.763 21.2139 22.5314C17.9303 25.305 13.094 25.6478 9.43366 23.4216C5.82599 21.2252 3.87903 16.8637 4.71615 12.7041C5.67477 7.93599 9.87787 4.52559 14.7006 4.47139C18.9334 4.51881 22.8409 7.17044 24.2734 11.2122L24.2734 11.2177ZM27.4422 14.6809C27.3649 21.7103 21.7053 27.3899 14.7006 27.4675C14.3645 27.4702 14.3645 28 14.7006 28C21.9966 27.918 27.8912 22.0026 27.9729 14.6809C27.9769 14.3367 27.4449 14.3367 27.4422 14.6809ZM1.95368 14.7296C2.03108 7.67028 7.71478 1.96651 14.7492 1.88887C15.319 1.88887 15.3203 0.994605 14.7492 1.00002C7.22896 1.08566 1.15333 7.18277 1.06797 14.7296C1.06257 15.3015 1.94289 15.3015 1.95368 14.7296ZM15.7565 2.01081C15.9801 2.23492 16.3424 2.23479 16.5659 2.01054C16.7893 1.78616 16.7893 1.4225 16.5659 1.19812C16.3424 0.973875 15.9801 0.97374 15.7565 1.19785C15.6483 1.30529 15.5874 1.45163 15.5874 1.60433C15.5874 1.75703 15.6483 1.90337 15.7565 2.01081ZM17.0648 1.84958C17.0648 1.98494 17.146 2.10701 17.2707 2.15877C17.3953 2.21053 17.5387 2.18194 17.6342 2.08628C17.7295 1.99049 17.758 1.8466 17.7064 1.72153C17.6548 1.59647 17.5332 1.5149 17.3983 1.5149C17.2141 1.5149 17.0648 1.66476 17.0648 1.84958ZM14.143 27.7032C14.1587 27.5424 14.0415 27.3993 13.8811 27.3835C13.7208 27.3679 13.5782 27.4855 13.5626 27.6464C13.5469 27.8072 13.6641 27.9504 13.8244 27.9662C13.9014 27.9737 13.9783 27.9502 14.038 27.9009C14.0978 27.8517 14.1356 27.7805 14.143 27.7032ZM13.3114 27.5474C13.3206 27.4521 13.2511 27.3674 13.1561 27.3581C13.0612 27.3488 12.9767 27.4184 12.9674 27.5137C12.958 27.609 13.0274 27.6938 13.1223 27.7032C13.2172 27.7119 13.3014 27.6425 13.3114 27.5474ZM2.08601 15.9248C1.94615 15.6403 1.60301 15.5233 1.31948 15.6636C1.03596 15.8038 0.919371 16.1482 1.05905 16.4328C1.19873 16.7174 1.54181 16.8344 1.82542 16.6944C1.96172 16.627 2.06577 16.5081 2.11464 16.3637C2.16352 16.2194 2.15322 16.0614 2.08601 15.9248ZM2.20346 17.2526C2.12113 17.0887 1.92236 17.0226 1.75875 17.1044C1.59513 17.1862 1.52818 17.3854 1.60895 17.55C1.68973 17.7145 1.88786 17.7827 2.05225 17.7024C2.13194 17.6631 2.19271 17.5935 2.2211 17.5091C2.24948 17.4246 2.24314 17.3323 2.20346 17.2526ZM27.4247 13.8842C27.4521 13.9995 27.5461 14.0867 27.6627 14.1053C27.7793 14.1238 27.8955 14.0701 27.9572 13.969C28.0188 13.8678 28.0135 13.7395 27.944 13.6437C27.8743 13.548 27.7541 13.5038 27.6394 13.5319C27.4834 13.57 27.3875 13.7274 27.4247 13.8842ZM27.4436 13.1322C27.4538 13.1771 27.4817 13.2159 27.5209 13.2399C27.56 13.2639 27.6071 13.2709 27.6516 13.2595C27.7196 13.2433 27.7711 13.1873 27.7821 13.118C27.7931 13.0486 27.7613 12.9794 27.7015 12.9427C27.6417 12.9062 27.566 12.9094 27.5093 12.9509C27.4529 12.9923 27.4269 13.0639 27.4436 13.1322Z"
  >
  </path>
  <path
    d="M37.4001 20.8762C38.9513 22.8162 41.1808 23.9258 43.584 23.9258C47.2149 23.9258 50.1227 21.7056 50.1227 18.5047C50.1227 15.0484 47.5172 14.1661 44.0601 13.4098C41.8588 12.881 40.9301 12.5555 40.9301 11.3683C40.9301 10.4124 41.782 9.60375 43.4862 9.60375C44.6617 9.60375 45.5141 10.035 46.1401 10.6373C46.4636 10.9419 46.891 11.1167 47.3675 11.1167C48.3168 11.1167 49.1198 10.3364 49.1198 9.3522C49.1198 8.84801 48.9189 8.42 48.5677 8.0908C47.3921 6.95626 45.7399 6.07291 43.4862 6.07291C39.8554 6.07291 37.4236 8.39521 37.4236 11.3683C37.4236 14.9509 40.1298 16.0858 43.26 16.8423C45.6874 17.3711 46.6162 17.5451 46.6162 18.5047C46.6162 19.6148 45.2882 20.3968 43.584 20.3968C42.2591 20.3968 41.0552 19.8151 40.13 18.656C39.803 18.2531 39.3018 18.0016 38.7524 18.0016C37.7994 18.0016 37 18.7819 37 19.7661C37 20.1688 37.1497 20.5714 37.4001 20.8762ZM60.8378 22.236L60.8378 7.76451C60.8378 6.78039 60.061 6 59.0836 6C58.1064 6 57.3313 6.78039 57.3313 7.76451L57.3313 22.236C57.3313 23.22 58.1064 24.0005 59.0836 24.0005C60.061 24.0005 60.8378 23.22 60.8378 22.236ZM79.3425 7.76451L79.3425 11.0146C79.3425 13.1858 77.5905 14.952 75.4377 14.952C73.3092 14.952 71.5565 13.1858 71.5565 11.0146L71.5565 7.76451C71.5565 6.78039 70.7797 6 69.8023 6C68.8251 6 68.05 6.78039 68.05 7.76451L68.05 11.0146C68.05 14.5446 70.4283 17.4731 73.6836 18.2786L73.6836 18.3023L73.7089 22.236C73.7089 23.1956 74.4841 24.0005 75.4613 24.0005C76.4386 24.0005 77.2136 23.1956 77.2136 22.236L77.1901 18.3023L77.1901 18.2786C80.4209 17.4976 82.849 14.5446 82.849 11.0146L82.849 7.76451C82.849 6.78039 82.0722 6 81.0949 6C80.1177 6 79.3425 6.78039 79.3425 7.76451ZM101.354 7.76451L101.354 16.4631C101.354 18.6308 99.601 20.3968 97.4725 20.3968C95.3197 20.3968 93.5677 18.6308 93.5677 16.4631L93.5677 7.76451C93.5677 6.78039 92.7873 6 91.8136 6C90.8364 6 90.0612 6.78039 90.0612 7.76451L90.0612 16.4631C90.0612 20.5955 93.3651 23.9258 97.4725 23.9258C101.552 23.9258 104.86 20.5955 104.86 16.4631L104.86 7.76451C104.86 6.78039 104.083 6 103.106 6C102.129 6 101.354 6.78039 101.354 7.76451ZM115.575 22.236L115.575 16.5123L120.259 16.5123C121.66 16.5123 122.836 17.697 122.836 19.1117L122.836 22.236C122.836 23.22 123.615 24.0005 124.589 24.0005C125.566 24.0005 126.343 23.22 126.343 22.236L126.343 19.1117C126.343 17.0665 125.341 15.2527 123.814 14.1426C124.617 13.1094 125.09 11.7986 125.09 10.3839L125.09 7.76451C125.09 6.78039 124.315 6 123.338 6C122.364 6 121.584 6.78039 121.584 7.76451L121.584 10.3839C121.584 11.7986 120.409 12.9833 119.008 12.9833L115.575 12.9833L115.575 7.76451C115.575 6.78039 114.798 6 113.821 6C112.847 6 112.069 6.78039 112.069 7.76451L112.069 22.236C112.069 23.22 112.847 24.0005 113.821 24.0005C114.798 24.0005 115.575 23.22 115.575 22.236ZM137.062 22.236L137.062 7.76451C137.062 6.78039 136.285 6 135.307 6C134.33 6 133.555 6.78039 133.555 7.76451L133.555 22.236C133.555 23.22 134.33 24.0005 135.307 24.0005C136.285 24.0005 137.062 23.22 137.062 22.236ZM153.135 20.3968C150.182 20.3968 147.78 17.9759 147.78 14.9994C147.78 12.0227 150.182 9.60375 153.135 9.60375C156.091 9.60375 158.495 12.0227 158.495 14.9994C158.495 17.9759 156.091 20.3968 153.135 20.3968ZM153.135 23.9258C158.046 23.9258 162 19.9405 162 14.9994C162 10.058 158.046 6.07291 153.135 6.07291C148.228 6.07291 144.274 10.058 144.274 14.9994C144.274 19.9405 148.228 23.9258 153.135 23.9258Z"
  >
  </path>
  <path
    d="M16.0326 12.3406C15.4591 12.5683 15.7935 13.4691 16.3913 13.2291C16.9891 12.9892 17.5159 12.5926 17.6944 11.9198C18.0409 10.5895 16.75 10 15.745 10C14.5026 10 12.983 10.3721 12.5411 12.0884C12.1703 13.5038 13.4023 14.5124 14.5026 14.9802C15.9009 15.6392 16.0205 16.3 15.9374 16.6721L15.9495 16.6356C15.7572 17.2842 15.1594 18.1954 13.9048 18.1954C12.529 18.1954 11.5483 17.3312 12.4458 16.4078C12.8634 15.9766 12.1946 15.2792 11.7527 15.7366C9.82764 17.7276 11.9797 19.6352 13.9048 19.6352C15.6133 19.6352 17.1676 18.4232 17.5506 17.0912C17.5627 17.0686 17.5506 17.0912 17.5506 17.0912C18.0045 15.1245 16.2008 14.4516 14.9809 13.876C13.988 13.457 13.5808 12.857 13.7125 12.377C13.8684 11.7528 14.7885 11.1998 15.745 11.1998C16.5819 11.1998 16.8453 11.3685 16.7621 11.6797C16.7015 11.9198 16.4867 12.1597 16.0326 12.3406Z"
  >
  </path>
</svg>
