<svg xmlns="http://www.w3.org/2000/svg" xmlns:xlink="http://www.w3.org/1999/xlink" width="28"
  height="28" viewBox="0 0 28 28">
  <path
    d="M3.53317 10.3173C1.90796 14.7744 3.34984 19.9673 7.00721 22.9552C10.6646 25.9431 15.9783 26.3802 20.04 23.9103C24.1018 21.4404 26.1937 16.6363 25.3109 11.9744C24.3033 6.6653 19.52 2.86192 14.1945 2.8032C9.43132 2.84522 5.18896 5.83521 3.53317 10.3173ZM23.4114 10.8392C24.7778 14.7325 23.6053 19.0681 20.4652 21.734C17.3032 24.4048 12.646 24.7349 9.12128 22.5912C5.64724 20.4762 3.7724 16.2762 4.5785 12.2706C5.50162 7.6791 9.54904 4.39501 14.1932 4.34282C18.2692 4.38849 22.0319 6.94191 23.4114 10.834L23.4114 10.8392ZM26.4629 14.1742C26.3884 20.9433 20.9384 26.4124 14.1932 26.4872C13.8695 26.4898 13.8695 27 14.1932 27C21.2189 26.921 26.8952 21.2247 26.9738 14.1742C26.9777 13.8428 26.4655 13.8428 26.4629 14.1742ZM1.91836 14.2212C1.99288 7.42323 7.46607 1.93071 14.24 1.85595C14.7887 1.85595 14.79 0.994804 14.24 1.00002C6.99824 1.08248 1.14765 6.95378 1.06545 14.2212C1.06025 14.7718 1.90796 14.7718 1.91836 14.2212ZM15.2099 1.97338C15.4252 2.18918 15.7742 2.18905 15.9894 1.97311C16.2045 1.75705 16.2045 1.40685 15.9894 1.19078C15.7742 0.97484 15.4252 0.97471 15.2099 1.19052C15.1058 1.29399 15.0471 1.4349 15.0471 1.58195C15.0471 1.72899 15.1058 1.86991 15.2099 1.97338ZM16.4698 1.81811C16.4698 1.94845 16.548 2.06601 16.668 2.11585C16.7881 2.1657 16.9261 2.13817 17.0181 2.04605C17.1098 1.9538 17.1373 1.81524 17.0876 1.69481C17.0379 1.57438 16.9208 1.49583 16.7909 1.49583C16.6136 1.49583 16.4698 1.64014 16.4698 1.81811ZM13.6563 26.7143C13.6713 26.5594 13.5584 26.4215 13.404 26.4064C13.2497 26.3913 13.1123 26.5046 13.0972 26.6595C13.0822 26.8144 13.1951 26.9522 13.3494 26.9674C13.4236 26.9747 13.4975 26.9521 13.5551 26.9046C13.6126 26.8571 13.649 26.7887 13.6563 26.7143ZM12.8554 26.5642C12.8642 26.4724 12.7973 26.3908 12.7059 26.3818C12.6145 26.3729 12.5331 26.44 12.5241 26.5317C12.5151 26.6235 12.5819 26.7052 12.6733 26.7143C12.7647 26.7226 12.8458 26.6558 12.8554 26.5642ZM2.04578 15.372C1.91111 15.098 1.58067 14.9855 1.30765 15.1205C1.03462 15.2556 0.922357 15.5871 1.05686 15.8612C1.19137 16.1352 1.52174 16.248 1.79485 16.1131C1.9261 16.0482 2.02629 15.9337 2.07336 15.7947C2.12042 15.6557 2.1105 15.5036 2.04578 15.372ZM2.15889 16.6506C2.0796 16.4929 1.8882 16.4291 1.73064 16.5079C1.57308 16.5868 1.50862 16.7785 1.5864 16.937C1.66419 17.0955 1.85497 17.1611 2.01327 17.0838C2.09001 17.0459 2.14854 16.9789 2.17587 16.8976C2.2032 16.8163 2.19709 16.7274 2.15889 16.6506ZM26.446 13.407C26.4723 13.518 26.5628 13.6021 26.6752 13.6199C26.7874 13.6378 26.8993 13.586 26.9587 13.4887C27.018 13.3912 27.013 13.2676 26.946 13.1754C26.8789 13.0833 26.7632 13.0408 26.6527 13.0678C26.5025 13.1044 26.4101 13.256 26.446 13.407ZM26.4642 12.6829C26.474 12.726 26.5008 12.7635 26.5385 12.7866C26.5762 12.8097 26.6216 12.8165 26.6644 12.8055C26.7299 12.7898 26.7796 12.736 26.7901 12.6692C26.8006 12.6024 26.7701 12.5357 26.7125 12.5004C26.6549 12.4652 26.582 12.4684 26.5275 12.5083C26.4731 12.5482 26.448 12.6171 26.4642 12.6829Z"
    ></path>
  <path 
    d="M14.8463 12.2538C14.2939 12.4732 14.616 13.3406 15.1916 13.1095C15.7673 12.8784 16.2746 12.4966 16.4464 11.8486C16.7801 10.5676 15.537 10 14.5693 10C13.3729 10 11.9095 10.3583 11.4841 12.0111C11.127 13.3741 12.3133 14.3453 13.3729 14.7957C14.7194 15.4303 14.8346 16.0666 14.7545 16.425L14.7662 16.3898C14.5809 17.0144 14.0053 17.8918 12.7972 17.8918C11.4724 17.8918 10.528 17.0596 11.3923 16.1705C11.7944 15.7552 11.1503 15.0837 10.7248 15.5241C8.87105 17.4414 10.9434 19.2783 12.7972 19.2783C14.4425 19.2783 15.9392 18.1112 16.3079 16.8285C16.3196 16.8068 16.3079 16.8285 16.3079 16.8285C16.7451 14.9347 15.0081 14.2867 13.8334 13.7324C12.8773 13.3289 12.4852 12.7512 12.612 12.289C12.7622 11.6879 13.6482 11.1554 14.5693 11.1554C15.3752 11.1554 15.6288 11.3178 15.5487 11.6175C15.4903 11.8486 15.2834 12.0797 14.8463 12.2538Z"></path>
</svg>